HIERARCHY
ROOT Hips
{
  OFFSET 0 0 0
  CHANNELS 6 Xposition Yposition Zposition Zrotation Yrotation Xrotation
  JOINT LeftThigh
  {
    OFFSET 8.409438 0 -5.917753
    CHANNELS 3 Zrotation Yrotation Xrotation
    JOINT LeftLeg
    {
      OFFSET 0 0 -42.358652
      CHANNELS 3 Zrotation Yrotation Xrotation
      JOINT LeftFoot
      {
        OFFSET 0 0 -39.357303
        CHANNELS 3 Zrotation Yrotation Xrotation
      }
    }
  }
  JOINT RightThigh
  {
    OFFSET -8.409438 0 -5.917753
    CHANNELS 3 Zrotation Yrotation Xrotation
    JOINT RightLeg
    {
      OFFSET 0 0 -42.358652
      CHANNELS 3 Zrotation Yrotation Xrotation
      JOINT RightFoot
      {
        OFFSET 0 0 -39.357303
        CHANNELS 3 Zrotation Yrotation Xrotation
      }
    }
  }
  JOINT SpineLow
  {
    OFFSET 0 0 4.719101
    CHANNELS 3 Zrotation Yrotation Xrotation
    JOINT SpineMid
    {
      OFFSET 0 0 12.899191
      CHANNELS 3 Zrotation Yrotation Xrotation
      JOINT Chest
      {
        OFFSET 0 0 12.899191
        CHANNELS 3 Zrotation Yrotation Xrotation
        JOINT LeftShoulder
        {
          OFFSET 7.550562 1.41573 9.438202
          CHANNELS 3 Zrotation Yrotation Xrotation
          JOINT LeftArm
          {
            OFFSET 9.155056 0 4.247191
            CHANNELS 3 Zrotation Yrotation Xrotation
            JOINT LeftForearm
            {
              OFFSET 0 0 25.771955
              CHANNELS 3 Zrotation Yrotation Xrotation
              JOINT LeftHand
              {
                OFFSET 0 0 25.197169
                CHANNELS 3 Zrotation Yrotation Xrotation
              }
            }
          }
        }
        JOINT RightShoulder
        {
          OFFSET -7.550562 1.41573 9.438202
          CHANNELS 3 Zrotation Yrotation Xrotation
          JOINT RightArm
          {
            OFFSET -9.155056 0 4.247191
            CHANNELS 3 Zrotation Yrotation Xrotation
            JOINT RightForearm
            {
              OFFSET 0 0 -25.771955
              CHANNELS 3 Zrotation Yrotation Xrotation
              JOINT RightHand
              {
                OFFSET 0 0 -25.197169
                CHANNELS 3 Zrotation Yrotation Xrotation
              }
            }
          }
        }
        JOINT Neck
        {
          OFFSET 0 0 15.101124
          CHANNELS 3 Zrotation Yrotation Xrotation
          JOINT Head
          {
            OFFSET 0 0 11.325843
            CHANNELS 3 Zrotation Yrotation Xrotation
            End Site
            {
              OFFSET 0 0 14.157303
            }
          }
        }
      }
    }
  }
}
MOTION
Frames: 16
Frame Time: 0.01
0.0  101.685394  0.0  -0.213454  45.540369  -99.383387  14.032851  -19.734664  0.790073  -15.133233  10.798216  17.97393  -1.786313  0.59366  1.086727  -31.173379  20.551441  2.937967  -8.245699  3.687139  15.969791  1.09457  3.32522  -2.297716  -1.822175  -0.676642  0.99232  -5.008647  -1.77322  2.762222  -5.008647  -1.773221  2.762222  3.886981  25.653302  10.954302  117.210993  42.776348  173.639359  -23.889887  11.131327  102.426029  54.372372  -9.603933  -30.082543  19.966885  8.801604  13.668805  -112.282155  75.658308  -159.390118  -40.983036  40.52886  -90.189655  69.805949  -19.97687  51.29336  -5.498623  5.047039  -1.820585  -4.106272  3.802049  -1.319166  
0.0  101.685394  0.0  0.776997  43.427073  -98.877263  12.966088  -18.758079  2.063407  -13.011352  10.242255  17.786185  -1.06758  0.5089  1.326019  -33.173161  21.583676  1.442528  -6.331173  3.456236  15.645165  2.009239  3.379739  -2.255683  -0.795585  -0.373618  0.830936  -2.187347  -0.993649  2.283448  -2.187347  -0.993649  2.283448  2.482189  24.347462  13.350798  122.526934  42.066695  169.739714  -24.166887  13.619192  100.79609  51.242444  -15.503255  -28.553841  17.524004  8.16196  12.359541  -134.775598  72.631661  -178.423232  -34.82634  48.965634  -79.839727  74.380117  -21.672385  49.482336  -7.232186  4.436455  -0.475663  -5.417971  3.333521  -0.304022  
0.0  101.685394  0.0  1.673004  40.962297  -98.327303  12.44918  -17.86429  2.976253  -11.14139  9.814135  17.732731  -0.333125  0.54305  1.497275  -32.960889  22.188029  0.749669  -5.675552  3.321238  15.168892  2.833299  3.363874  -2.242062  0.294039  0.030141  0.820522  0.804643  0.072401  2.243145  0.804643  0.072401  2.243145  -0.639867  22.764862  15.136941  126.391654  41.350531  165.358569  -26.911107  16.29758  98.192117  49.017672  -19.518341  -24.980405  15.139792  7.398982  10.031611  -153.769321  68.079876  166.951091  -27.670509  50.195047  -70.638416  77.911778  -19.218178  47.081771  -9.201737  3.174243  0.16325  -6.900385  2.378864  0.170294  
0.0  101.685394  0.0  2.195448  38.26146  -97.987354  12.774281  -17.462696  3.559374  -9.773144  9.556536  17.732382  0.944861  0.582196  1.804849  -32.075428  22.426718  0.353907  -5.048321  3.246951  14.71828  3.429795  3.33896  -2.256382  0.924081  0.406271  0.705992  2.537706  1.083232  1.945118  2.537706  1.083232  1.945117  -0.934409  19.906589  17.510606  130.50222  39.545707  162.167669  -28.72586  17.9068  97.145187  47.958819  -20.701846  -23.192703  16.512445  6.983971  9.02087  -164.852982  64.168682  161.148493  -23.327632  45.750649  -66.815041  76.486995  -11.985299  47.172377  -9.576439  1.872786  0.890219  -7.184435  1.391049  0.697167  
0.0  101.685394  0.0  2.618161  35.923705  -97.858894  13.34741  -17.298558  4.136944  -8.968167  9.507951  17.744627  1.46662  0.752717  1.874225  -30.963215  22.712362  0.314692  -4.411061  3.119791  14.304625  3.649433  3.261546  -2.288834  1.397869  0.601343  0.695148  3.838554  1.602748  1.934491  3.838553  1.602748  1.934491  -0.472769  16.818073  18.672848  133.843222  35.988609  160.246698  -28.514789  17.273179  98.061185  47.690759  -19.961681  -23.592193  18.009886  8.557728  8.274574  -172.888062  61.36391  157.811528  -22.966169  38.6152  -67.409719  80.065551  -9.131402  49.031793  -9.773163  1.148628  0.971339  -7.331474  0.846195  0.747079  
0.0  101.685394  0.0  2.944646  34.142459  -98.036214  13.909075  -17.279628  4.844825  -8.858244  9.614597  17.628734  2.073564  0.882244  1.981195  -30.011331  23.082027  0.542271  -5.514066  3.253312  13.771428  5.250209  3.293161  -2.195436  1.711503  0.645108  0.759572  4.698924  1.708379  2.1211  4.698924  1.708379  2.1211  0.478265  15.237678  19.637015  136.040746  32.383885  158.997181  -28.148177  15.213283  98.962617  46.6496  -19.740472  -23.200828  19.389918  11.893028  8.403134  -179.705788  58.785889  155.00885  -25.425023  35.929486  -67.95704  88.018967  -14.679428  48.669093  -9.8138  0.950615  0.721792  -7.361316  0.701585  0.55677  
0.0  101.685394  0.0  3.167233  32.865451  -98.163627  14.627944  -17.166852  5.301118  -8.962742  9.494897  17.661511  2.393074  1.006324  2.049489  -29.064298  23.25122  0.810359  -5.21083  3.143046  13.583374  5.154173  3.276715  -2.219126  2.185024  0.676851  0.794503  5.995379  1.776385  2.231284  5.995378  1.776384  2.231284  0.062617  14.586575  20.977805  137.451241  29.081089  158.066613  -28.044227  13.80511  99.56781  45.81623  -20.317544  -22.053946  18.4295  14.875854  9.372091  174.795986  56.382573  153.131169  -25.474215  38.936249  -63.505581  90.370609  -16.618697  48.724335  -10.761036  0.655536  0.645291  -8.071391  0.480465  0.49569  
0.0  101.685394  0.0  3.222315  32.174221  -98.239336  15.546619  -16.962129  5.423081  -9.854639  9.269124  17.648529  2.534075  1.127613  2.047997  -28.591677  23.24797  0.93584  -5.06476  3.047415  13.50286  5.006645  3.273664  -2.217991  2.576736  0.80177  0.695616  7.06788  2.114409  1.984921  7.067879  2.114409  1.984921  0.462321  13.217713  23.368087  137.578401  25.897851  157.920696  -27.82814  13.676726  100.022851  45.537653  -21.738666  -21.077721  17.445061  15.444594  10.597584  171.002429  53.924039  152.618769  -22.931133  40.981724  -56.927433  86.087375  -14.545791  49.441232  -11.838233  -0.095706  1.052866  -8.878539  -0.09222  0.788146  
0.0  101.685394  0.0  3.051253  32.054148  -98.094044  16.732665  -16.816917  4.992023  -11.048481  8.80626  17.705204  2.60023  1.282081  2.133522  -28.728844  22.930705  0.762146  -5.135077  3.011863  13.471954  5.021192  3.261646  -2.173826  2.78164  0.947845  0.65875  7.631913  2.510941  1.907699  7.631913  2.510941  1.907699  1.336619  11.759819  24.650654  137.043818  22.409988  158.401438  -27.396022  14.285041  100.343846  47.443423  -26.101338  -21.672456  15.485346  15.160358  10.37032  171.094532  52.494602  153.540024  -23.633331  41.317843  -52.575769  82.935267  -11.209456  48.446464  -12.68277  -1.076108  1.087063  -9.509921  -0.830071  0.79334  
0.0  101.685394  0.0  2.379333  32.467512  -97.545241  18.069154  -17.000785  3.68388  -12.651757  8.541104  17.724966  2.526145  1.402184  2.163729  -29.621342  22.006712  0.137045  -5.339263  2.997617  13.426241  5.144729  3.206305  -2.111095  2.827383  1.073701  0.555376  7.757063  2.865152  1.642098  7.757062  2.865152  1.642098  1.680988  10.645069  25.543728  137.400897  19.373782  159.780276  -26.805707  17.703066  101.016521  53.36176  -28.059899  -22.857069  13.74166  14.480333  9.413774  173.071357  52.877461  154.974276  -26.791083  40.609284  -52.553292  82.951386  -10.565777  46.828159  -13.271696  -2.103865  1.10789  -9.948879  -1.602863  0.785546  
0.0  101.685394  0.0  1.12586  34.521039  -97.558601  17.718028  -17.717314  2.510695  -14.274968  8.536327  17.607293  2.630753  1.459859  2.271775  -32.156789  20.993274  -0.11781  -5.478332  3.001007  13.339981  5.40278  3.078991  -2.033269  2.460227  1.014744  0.472864  6.747865  2.722179  1.394918  6.747864  2.722179  1.394918  3.629441  10.010146  26.244012  137.22342  16.899568  161.282344  -27.664167  19.594934  101.50344  54.835038  -29.058088  -21.888099  13.336283  14.213663  9.496537  178.984935  54.250352  159.837069  -29.32145  38.26857  -54.661204  84.207135  -11.215297  46.361048  -13.267731  -2.575357  1.189072  -9.944156  -1.958435  0.836163  
0.0  101.685394  0.0  0.10253  36.88121  -98.683663  16.337384  -18.608093  2.658729  -14.771594  8.558915  18.109003  2.130946  1.392853  1.966816  -34.4838  20.885638  0.702945  -5.660401  2.961367  13.193672  5.684928  2.968746  -1.956914  1.896024  0.872676  0.569665  5.204832  2.338873  1.625059  5.204831  2.338874  1.625059  6.471575  9.950421  26.546127  137.616223  15.85163  162.6205  -28.108211  20.16712  101.592843  54.663716  -29.353388  -21.015306  14.204442  14.073235  10.115453  -171.620207  55.465919  167.921167  -30.682999  35.237521  -56.800152  85.781327  -11.287703  46.209031  -12.635966  -2.60626  1.24141  -9.470091  -1.981376  0.877409  
0.0  101.685394  0.0  -0.321292  38.022095  -99.261603  15.873128  -19.173493  2.759858  -15.454167  8.709649  18.04969  2.102803  1.408406  2.060761  -35.706746  20.970597  1.155381  -5.64541  2.857961  13.023856  5.783772  2.867619  -1.898304  1.530502  0.785926  0.592743  4.203771  2.1096  1.669718  4.203771  2.1096  1.669718  9.238509  10.052228  26.561034  138.079224  15.906521  163.685024  -27.761293  20.496961  101.716256  55.403592  -28.792609  -20.912305  15.607929  13.970822  10.651582  -162.04781  56.399403  176.218959  -31.010385  33.771426  -58.166289  86.811218  -10.88594  45.753618  -11.930367  -2.446839  1.355926  -8.941038  -1.862451  0.969426  
0.0  101.685394  0.0  -0.361857  37.938283  -99.2371  16.099526  -19.361297  2.516597  -15.244131  8.69588  18.347916  2.088135  1.412565  2.140834  -35.646374  20.884517  1.270771  -5.605961  2.757475  12.849829  5.832239  2.802413  -1.839932  1.513871  0.772668  0.549791  4.156601  2.076517  1.550957  4.156601  2.076517  1.550957  10.635396  10.33746  25.954257  138.117647  16.481105  164.141144  -27.523917  20.146927  101.605677  56.077247  -27.826076  -20.770488  16.486247  13.513572  11.245647  -153.863458  56.580401  -176.393961  -30.998512  33.459855  -59.03501  87.204622  -10.666182  45.261629  -11.498228  -2.395665  1.550299  -8.616402  -1.826696  1.11792  
0.0  101.685394  0.0  -0.212589  37.218859  -99.152927  16.503503  -19.425374  2.481535  -14.882982  8.700961  18.502975  2.097475  1.40894  2.204931  -34.738834  20.848554  1.484035  -5.558658  2.664258  12.658676  5.715963  2.77022  -1.80398  1.690688  0.77413  0.617484  4.642156  2.071492  1.741522  4.642155  2.071492  1.741522  10.673486  11.007163  24.36199  137.809929  17.302055  164.158435  -27.712205  19.0825  101.249074  56.093  -26.741353  -20.518254  16.753372  13.257891  11.197269  -148.273282  56.334102  -171.272329  -31.093336  33.559083  -59.471568  86.836771  -10.593087  45.089029  -11.414852  -2.332713  1.394953  -8.554684  -1.776335  1.002886  
0.0  101.685394  0.0  0.020058  36.218457  -98.818165  16.86205  -19.35614  2.292758  -13.935543  8.591096  18.864523  2.119301  1.429362  2.270678  -33.486561  20.644942  1.537975  -5.577443  2.578021  12.479447  5.654287  2.777986  -1.785224  1.878131  0.782484  0.655263  5.156038  2.086296  1.851177  5.156038  2.086296  1.851178  10.483152  11.676782  22.97378  137.25351  18.232931  164.188995  -28.192481  17.465461  100.666152  55.190523  -25.966456  -19.981938  17.155828  13.092467  10.881918  -145.800562  56.051572  -169.065676  -31.875242  33.395769  -59.814603  86.403636  -10.636541  45.156691  -10.979416  -2.28334  1.356879  -8.228451  -1.737556  0.976851  
